<svg width="120" height="120" viewBox="0 0 166.17 155.53" xmlns="http://www.w3.org/2000/svg"><path d="M57.547424,52.044724v46.324172c0,12.070754-3.496927,27.243784-7.76025,24.279044L28.226539,101.90277c-3.007918-2.077973-5.114304-9.46337-5.114304-17.934076v-17.523771c0-8.470705,2.106386-15.882572,5.114304-17.934071L48.431314,26.31597c4.2886-2.964747,9.11611,13.618293,9.11611,25.728754Z" transform="translate(1 4)" fill="#c69c6d" stroke="#333" stroke-width="10.5601" stroke-miterlimit="10"/><rect width="125.316" height="43.311" rx="35.286404" ry="21.655519" transform="translate(32.7993 56.7092)" fill="#ccc" stroke="#333" stroke-width="11.5649" stroke-miterlimit="10"/><rect width="82.5408" height="4.36116" rx="2.180579" ry="2.180579" transform="matrix(.686329-.727291 0.686329 0.727291 45.554763 72.027387)" fill="#fcc875" stroke-width="0.973473"/><rect width="82.5408" height="4.36116" rx="2.180579" ry="2.180579" transform="matrix(.686329 0.727291-.686329 0.727291 47.605797 81.076202)" fill="#fcc875" stroke-width="0.973473"/><rect width="79.4273" height="16.6913" rx="39.713627" ry="8.340894" transform="matrix(.337287-.941402 0.927731 0.373249 98.297747 146.807821)" fill="#ccc" stroke="#333" stroke-width="8" stroke-miterlimit="10"/><rect width="79.4273" height="16.6913" rx="39.713627" ry="8.340894" transform="matrix(.337287 0.941402-.927731 0.373249 113.790019 3.938875)" fill="#ccc" stroke="#333" stroke-width="8" stroke-miterlimit="10"/><rect width="130.058" height="14.4508" rx="36.621758" ry="7.225407" transform="translate(30.4283 71.0333)" fill="#c69c6d" stroke="#333" stroke-width="8" stroke-miterlimit="10"/><path d="M43.446411,57.22495v35.044124c0,9.131496-4.66765,15.809906-9.448683,13.567076L10.564993,94.94244c-3.37318-1.57198-5.735351-7.159014-5.735351-13.567083v-13.256691c0-6.408068,2.362171-12.015128,5.735351-13.567082L33.969382,43.62783c4.809379-2.242824,9.477029,4.435584,9.477029,13.59712Z" transform="translate(1 4)" fill="#c69c6d" stroke="#333" stroke-width="10" stroke-miterlimit="10"/><path d="M99.586282,26.666913v-18.659925c0-4.862252-29.71076-11.85886-.332991-10.664626L118.38727,4.106254c1.87733.837024,2.69108,6.289182,2.69108,9.701298v7.058808c0,3.412076-1.31467,6.397665-3.19202,7.224035l-12.61038,8.940377c-2.67665,1.194244-5.689649-5.485607-5.689668-10.363859Z" transform="translate(1 4)" fill="#c69c6d" stroke="#333" stroke-width="5.2949" stroke-miterlimit="10"/><path d="M100.79927,122.16091v18.65992c0,4.86226-29.710764,11.85885-.33299,10.66462l19.13399-6.76389c1.87733-.83702,2.69107-6.28917,2.69107-9.70129v-7.05881c0-3.41207-1.31467-6.39766-3.19202-7.22403l-12.61039-8.94039c-2.67665-1.19424-5.68965,5.48562-5.68966,10.36387Z" transform="translate(1 4)" fill="#c69c6d" stroke="#333" stroke-width="5.29421" stroke-miterlimit="10"/></svg>